<svg width="111" height="150" viewBox="0 0 111 150" fill="none" xmlns="http://www.w3.org/2000/svg">
<path d="M66.8683 98.5469C45.4187 110.104 33.6213 123.801 33.6213 123.801L34.2135 99.5867C66.7147 78.5682 70.9438 47.8249 70.9438 47.8249C64.0799 54.0313 37.9112 59.3818 37.9112 59.3818L56.7871 57.2417C53.0208 73.6128 36.97 83.8889 36.97 83.8889C30.3206 72.118 17.1051 42.0464 17.1051 42.0464C25.8995 37.552 42.2012 19.3605 42.2012 19.3605C47.7782 19.7885 66.2249 17.4344 66.2249 17.4344C73.7322 32.4156 93.895 47.8249 93.895 47.8249C84.8861 60.2378 66.8683 98.5469 66.8683 98.5469ZM72.2359 0C48.9202 5.28069 35.3313 0.998932 35.3313 0.998932C15.0195 31.8269 0 33.254 0 33.254C6.58 47.5261 30.4679 88.7727 30.4679 88.7727L21.1701 97.0503L21.3132 150C43.4846 117.317 72.5218 104.329 72.5218 104.329C74.8106 88.2017 111 39.8191 111 39.8191C84.6804 32.2549 72.2359 0 72.2359 0Z" fill="black"/>
</svg>
